<?xml version="1.0" encoding="UTF-8" standalone="no"?>
<!-- Created with Inkscape (http://www.inkscape.org/) -->

<svg
   width="79.121094mm"
   height="31.637966mm"
   viewBox="0 0 79.121094 31.637966"
   version="1.1"
   id="svg5"
   xml:space="preserve"
   sodipodi:docname="Login.svg"
   inkscape:version="1.2.2 (732a01da63, 2022-12-09)"
   xmlns:inkscape="http://www.inkscape.org/namespaces/inkscape"
   xmlns:sodipodi="http://sodipodi.sourceforge.net/DTD/sodipodi-0.dtd"
   xmlns:xlink="http://www.w3.org/1999/xlink"
   xmlns="http://www.w3.org/2000/svg"
   xmlns:svg="http://www.w3.org/2000/svg"><sodipodi:namedview
     id="namedview7"
     pagecolor="#ffffff"
     bordercolor="#000000"
     borderopacity="0.25"
     inkscape:showpageshadow="2"
     inkscape:pageopacity="0.0"
     inkscape:pagecheckerboard="0"
     inkscape:deskcolor="#d1d1d1"
     inkscape:document-units="mm"
     showgrid="false"
     inkscape:zoom="1.0544998"
     inkscape:cx="361.78291"
     inkscape:cy="-107.15981"
     inkscape:window-width="1920"
     inkscape:window-height="1017"
     inkscape:window-x="-8"
     inkscape:window-y="-8"
     inkscape:window-maximized="1"
     inkscape:current-layer="layer1" /><defs
     id="defs2"><inkscape:path-effect
       effect="powerclip"
       id="path-effect49837"
       is_visible="true"
       lpeversion="1"
       inverse="true"
       flatten="false"
       hide_clip="false"
       message="Utilise la règle de remplissage « fill-rule: evenodd » de la boîte de dialogue &lt;b&gt;Fond et contour&lt;/b&gt; en l'absence de résultat de mise à plat après une conversion en chemin." /><linearGradient
       inkscape:collect="always"
       id="linearGradient33037"><stop
         style="stop-color:#ffffff;stop-opacity:1;"
         offset="0.15625"
         id="stop33033" /><stop
         style="stop-color:#ffffff;stop-opacity:0;"
         offset="0.79062498"
         id="stop33035" /></linearGradient><linearGradient
       inkscape:collect="always"
       id="linearGradient32991"><stop
         style="stop-color:#ffffff;stop-opacity:1;"
         offset="0.18437499"
         id="stop32987" /><stop
         style="stop-color:#ffffff;stop-opacity:0;"
         offset="1"
         id="stop32989" /></linearGradient><linearGradient
       inkscape:collect="always"
       xlink:href="#linearGradient32991"
       id="linearGradient32995-0"
       x1="73.453949"
       y1="99.828026"
       x2="73.433334"
       y2="115.9732"
       gradientUnits="userSpaceOnUse"
       spreadMethod="pad" /><filter
       inkscape:collect="always"
       style="color-interpolation-filters:sRGB"
       id="filter39539-9"
       x="-0.16623279"
       y="-0.33168668"
       width="1.3324656"
       height="1.6633734"><feGaussianBlur
         inkscape:collect="always"
         stdDeviation="1.5910548"
         id="feGaussianBlur39541-6" /></filter><inkscape:path-effect
       effect="spiro"
       id="path-effect11011-0-8"
       is_visible="true"
       lpeversion="1" /><filter
       inkscape:collect="always"
       style="color-interpolation-filters:sRGB"
       id="filter33085-4"
       x="-0.090977177"
       y="-0.38466695"
       width="1.1819544"
       height="1.769334"><feGaussianBlur
         inkscape:collect="always"
         stdDeviation="1.7755223"
         id="feGaussianBlur33087-6" /></filter><linearGradient
       inkscape:collect="always"
       xlink:href="#linearGradient33037"
       id="linearGradient48837"
       gradientUnits="userSpaceOnUse"
       gradientTransform="matrix(1.0352941,0,0,1.1684183,61.358219,-47.902862)"
       x1="107.89459"
       y1="106.50752"
       x2="108.07202"
       y2="120.34623"
       spreadMethod="pad" /><clipPath
       clipPathUnits="userSpaceOnUse"
       id="clipPath49833"><path
         id="path49835"
         style="display:none;opacity:1;fill:#00cf01;fill-opacity:1;fill-rule:nonzero;stroke:none;stroke-width:0.2;stroke-linecap:round;stroke-linejoin:round;stroke-dasharray:none;paint-order:fill markers stroke"
         d="m 196.89212,70.687906 v 0.219623 h -53.75744 v 7.402134 h 53.75744 v 20.291785 h 6.77426 V 70.687906 Z" /><path
         id="lpe_path-effect49837"
         style="opacity:1;fill:#00cf01;fill-opacity:1;fill-rule:nonzero;stroke:none;stroke-width:0.2;stroke-linecap:round;stroke-linejoin:round;stroke-dasharray:none;paint-order:fill markers stroke"
         class="powerclip"
         d="m 141.20682,68.939621 h 65.36122 v 29.600282 h -65.36122 z m 55.6853,1.748285 v 0.219623 h -53.75744 v 7.402134 h 53.75744 v 20.291785 h 6.77426 V 70.687906 Z" /></clipPath></defs><g
     inkscape:label="Calque 1"
     inkscape:groupmode="layer"
     id="layer1"
     transform="translate(-222.3087,-74.918227)"><g
       id="g49947"
       transform="translate(99.861725,5.5199945)"
       inkscape:export-filename="Login.svg"
       inkscape:export-xdpi="96"
       inkscape:export-ydpi="96"><path
         id="rect4652-5"
         clip-path="none"
         style="fill:#00cf01;fill-opacity:1;stroke:none;stroke-width:0.2;stroke-linecap:round;stroke-linejoin:round;stroke-dasharray:none;paint-order:fill markers stroke"
         d="m 138.00192,72.557842 a 14.552714,14.239077 0 0 0 -14.5526,14.239452 14.552714,14.239077 0 0 0 14.5526,14.238906 14.552714,14.239077 0 0 0 10.96574,-4.892716 h 46.97233 c 0.56824,0 1.02578,-0.43969 1.02578,-0.98598 v -15.84244 c 0,-0.54631 -0.45754,-0.98599 -1.02578,-0.98599 h -46.23904 a 14.552714,14.239077 0 0 0 -11.69903,-5.771232 z" /><text
         xml:space="preserve"
         style="font-style:normal;font-variant:normal;font-weight:normal;font-stretch:normal;font-size:9.66738px;line-height:0.5;font-family:'Myanmar Text';-inkscape-font-specification:'Myanmar Text';fill:#000000;stroke:#000000;stroke-width:0.200001;stroke-linecap:round;stroke-linejoin:round;stroke-dasharray:none;paint-order:fill markers stroke"
         x="148.64937"
         y="95.426666"
         id="text6794-5"
         transform="scale(1.0570105,0.94606439)"><tspan
           sodipodi:role="line"
           id="tspan6792-7"
           style="font-style:normal;font-variant:normal;font-weight:normal;font-stretch:normal;font-size:9.66738px;font-family:'Myanmar Text';-inkscape-font-specification:'Myanmar Text';stroke-width:0.200001"
           x="148.64937"
           y="95.426666">Login</tspan></text><path
         id="path6728-5"
         style="fill:#000000;stroke:none;stroke-width:0.2;stroke-linecap:round;stroke-linejoin:round;paint-order:fill markers stroke"
         d="m 133.97804,79.534154 a 1.1310483,1.0201613 0 0 1 -1.13105,1.02016 1.1310483,1.0201613 0 0 1 -1.13105,-1.02016 1.1310483,1.0201613 0 0 1 1.13105,-1.02017 1.1310483,1.0201613 0 0 1 1.13105,1.02017 z m 7.30084,18.64796 c 0,0 0.48418,0.35097 0.70646,0.37637 0.28769,0.0329 0.73209,-0.22974 1.09773,-0.34501 0.36564,-0.11525 0.20936,-0.52245 0.31364,-0.78409 0.10428,-0.26163 0.20935,-0.6061 0.31363,-0.90954 0.10428,-0.30345 0.063,-0.58519 0.0941,-0.87818 0.0311,-0.293 -0.29246,-0.35519 -0.43909,-0.53319 -0.14663,-0.17799 -0.41791,-0.0834 -0.62727,-0.12545 -0.20936,-0.0421 -0.35519,-0.0206 -0.53318,-0.0314 -0.17799,-0.0107 -0.16701,-0.29247 -0.25091,-0.43909 -0.0839,-0.14663 -0.16701,-0.29247 -0.25091,-0.43909 -0.0839,-0.14663 2.7e-4,-0.25064 0,-0.37636 -2.6e-4,-0.12572 0.18845,-0.27156 0.28227,-0.40774 0.0938,-0.13617 -0.0625,-0.48064 -0.0941,-0.72136 -0.0316,-0.24072 -0.10428,-0.25064 -0.15681,-0.37636 -0.0525,-0.12572 -0.10428,-0.29246 -0.15682,-0.43909 -0.0525,-0.14663 -0.39701,-0.20883 -0.59591,-0.31364 -0.1989,-0.10481 -0.3761,-0.22973 -0.56455,-0.345 -0.18844,-0.11526 -0.41791,-0.58519 -0.62727,-0.87818 -0.20935,-0.29299 -0.22973,-0.41792 -0.345,-0.62727 -0.11526,-0.20936 -0.0416,-0.39701 -0.0627,-0.59591 -0.0212,-0.1989 0.14663,-0.35518 0.21955,-0.53318 0.0729,-0.17799 0.063,-0.1461 0.0941,-0.21955 0.0311,-0.0734 -0.18792,-0.50154 -0.28227,-0.75272 -0.0944,-0.25118 -0.50156,-0.56427 -0.75273,-0.84681 -0.25117,-0.28254 -0.29246,-0.71064 -0.43909,-1.06636 -0.14663,-0.35573 -0.0416,-0.16702 -0.0627,-0.25092 -0.0212,-0.0839 0.35572,-0.12519 0.53318,-0.18818 0.17746,-0.063 0.18845,-0.0834 0.28227,-0.12546 0.0938,-0.0421 -0.0207,-0.31337 -0.0314,-0.47045 -0.0107,-0.15708 -0.43882,-0.12519 -0.65863,-0.18818 -0.21981,-0.063 -0.27156,-0.22974 -0.40773,-0.345 -0.13617,-0.11527 2.6e-4,-0.33428 0,-0.50182 -2.6e-4,-0.16754 0.16754,-0.58519 0.25091,-0.87818 0.0834,-0.29299 0.39754,-0.43883 0.59591,-0.65864 0.19837,-0.21981 0.12572,-0.45973 0.18818,-0.69 0.0625,-0.23026 0.0212,-0.77337 0.0314,-1.16045 0.0102,-0.38708 -0.33428,-0.64792 -0.50182,-0.97227 -0.16754,-0.32435 -0.3761,-0.41791 -0.56454,-0.62726 -0.18845,-0.20937 -0.35519,-0.22975 -0.53318,-0.345 -0.178,-0.11527 -0.81519,-0.0834 -1.22319,-0.12546 -0.40799,-0.0421 -0.45973,2.7e-4 -0.68999,0 -0.23027,-2.6e-4 -0.18792,0.0839 -0.28228,0.12546 -0.0944,0.0416 -0.0625,-0.10428 -0.0941,-0.15682 -0.0316,-0.0525 -0.397,-0.35519 -0.59591,-0.53318 -0.1989,-0.17799 -0.397,-0.12519 -0.5959,-0.18818 -0.19891,-0.063 -0.71065,-0.0625 -1.06637,-0.0941 -0.35572,-0.0316 -0.66882,0.31391 -1.00363,0.47046 -0.33481,0.15655 -0.56428,0.46026 -0.84682,0.69 -0.28254,0.22973 -0.31337,0.50208 -0.47045,0.75272 -0.15709,0.25064 2.6e-4,0.83663 0,1.25454 -2.7e-4,0.41792 0.063,0.293 0.0941,0.43909 0.0311,0.1461 -0.27156,0.3139 -0.40773,0.47045 -0.13617,0.15656 -0.31337,0.58572 -0.47046,0.87818 -0.15708,0.29247 -0.18791,0.56481 -0.28227,0.84682 -0.0944,0.28201 0.23027,1.0039 0.345,1.50545 0.11474,0.50156 0.60663,0.60663 0.90955,0.90955 0.30291,0.30292 0.71117,0.23026 1.06636,0.345 0.35519,0.11473 0.92026,0.0421 1.38,0.0627 0.45973,0.0206 0.41844,2.6e-4 0.62727,0 0.20883,-2.7e-4 0.16754,2.6e-4 0.25091,0 0.0834,-2.7e-4 -0.0206,0.25117 -0.0314,0.37636 -0.0107,0.12519 0.0212,0.52299 0.0314,0.78409 0.0102,0.2611 -0.0206,0.3139 -0.0314,0.47045 -0.0107,0.15656 0.27208,2.7e-4 0.40773,0 0.13564,-2.6e-4 0.14662,-0.1461 0.21954,-0.21954 0.0729,-0.0735 0.33481,-0.12519 0.50182,-0.18818 0.16701,-0.063 0.25379,0.1035 0.30579,0.20778 1.97874,3.45285 3.73781,7.15529 5.65487,10.6768 z" /><path
         style="mix-blend-mode:luminosity;fill:url(#linearGradient32995-0);fill-opacity:1;stroke:none;stroke-width:0.197277;stroke-linecap:round;stroke-linejoin:round;stroke-dasharray:none;paint-order:fill markers stroke;filter:url(#filter39539-9)"
         d="m 63.559654,112.98756 c 0.542597,0.12568 1.116291,-0.008 1.623689,-0.23798 0.507398,-0.22969 0.966629,-0.5516 1.449945,-0.82839 1.198509,-0.68638 2.538508,-1.09106 3.889087,-1.37999 1.6472,-0.35238 3.349046,-0.54045 5.018177,-0.31364 1.29867,0.17647 2.562624,0.60493 3.700906,1.25454 0.923395,0.53592 1.951748,0.8902 3.009291,1.03673 0.348996,0.0484 0.704092,0.0743 1.053366,0.028 0.349273,-0.0463 0.694393,-0.16856 0.967438,-0.39123 0.261739,-0.21345 0.446902,-0.5109 0.56115,-0.82873 0.114249,-0.31783 0.160864,-0.65642 0.177843,-0.99373 0.05856,-1.16335 -0.236479,-2.34216 -0.836142,-3.34077 -0.501068,-0.70196 -1.062444,-1.36085 -1.675915,-1.96704 -1.234226,-1.21958 -2.693857,-2.23074 -4.323394,-2.8268 -1.851876,-0.67739 -3.876033,-0.80144 -5.833631,-0.56455 -1.537759,0.18609 -3.053291,0.59245 -4.453632,1.25455 -1.267098,0.5991 -2.441729,1.41175 -3.387269,2.44636 -0.758438,0.82988 -1.363072,1.79511 -1.81909,2.82272 -0.326844,0.73652 -0.580619,1.51648 -0.627272,2.32091 -0.01924,0.33174 -0.0028,0.66734 0.07448,0.99053 0.07724,0.3232 0.216794,0.63419 0.427339,0.89128 0.254517,0.31078 0.612298,0.53663 1.003635,0.62728 z"
         id="path11009-0"
         inkscape:path-effect="#path-effect11011-0-8"
         inkscape:original-d="m 63.559654,112.98756 c 0.334281,0.20882 2.049354,-0.71065 3.073634,-1.06637 1.02428,-0.35571 2.592989,-0.91973 3.889087,-1.37999 1.296098,-0.46027 3.345716,-0.20883 5.018177,-0.31364 1.672461,-0.10481 2.467535,0.83663 3.700906,1.25454 1.135254,0.57234 2.154646,0.92121 3.009291,1.03673 0.854645,0.11553 1.544542,-0.002 2.020804,-0.36328 0.476262,-0.36101 0.738889,-0.96521 0.738993,-1.82246 1.04e-4,-0.85725 -0.262314,-1.96756 -0.836142,-3.34077 -0.289793,-0.50063 -0.960784,-1.08055 -1.675915,-1.96704 -1.511253,-1.8941 -2.231311,-1.56588 -4.323394,-2.8268 -1.4639,-0.89936 -3.888823,-0.3761 -5.833631,-0.56455 -1.944808,-0.18844 -2.968823,0.83663 -4.453632,1.25455 -1.484809,0.41791 -2.257915,1.63117 -3.387269,2.44636 -1.129355,0.81519 -1.212462,1.88208 -1.81909,2.82272 -0.606627,0.94065 -0.417917,1.54754 -0.627272,2.32091 -0.209355,0.77337 0.33481,1.25481 0.501818,1.88181 0.167008,0.62701 0.669355,0.41845 1.003635,0.62728 z"
         sodipodi:nodetypes="cccscssscccccscssc"
         transform="matrix(1,0,0,1.0277948,64.218639,-31.022335)" /><path
         style="mix-blend-mode:luminosity;fill:url(#linearGradient48837);fill-opacity:1;fill-rule:nonzero;stroke:none;stroke-width:0.2;stroke-linecap:round;stroke-linejoin:round;stroke-dasharray:none;paint-order:fill markers stroke;filter:url(#filter33085-4)"
         id="rect32997-3"
         width="46.838711"
         height="11.077774"
         x="150.46808"
         y="78.200874"
         rx="3.2363293"
         ry="2.5541625"
         clip-path="url(#clipPath49833)"
         inkscape:path-effect="#path-effect49837"
         d="m 153.70441,78.200874 h 40.36605 c 1.79293,0 3.23633,1.139157 3.23633,2.554163 v 5.969449 c 0,1.415006 -1.4434,2.554162 -3.23633,2.554162 h -40.36605 c -1.79293,0 -3.23633,-1.139156 -3.23633,-2.554162 v -5.969449 c 0,-1.415006 1.4434,-2.554163 3.23633,-2.554163 z"
         sodipodi:type="rect" /></g></g></svg>
